<?xml version="1.0" encoding="utf-8"?>
<!-- Generator: Adobe Illustrator 23.0.4, SVG Export Plug-In . SVG Version: 6.00 Build 0)  -->
<svg version="1.1" id="Layer_1" xmlns="http://www.w3.org/2000/svg" xmlns:xlink="http://www.w3.org/1999/xlink" x="0px" y="0px"
	 viewBox="0 0 742.68 83.3" style="enable-background:new 0 0 742.68 83.3;" xml:space="preserve">
<style type="text/css">
	.st0{fill:#FFFFFF;}
</style>
<g>
	<path class="st0" d="M253.28,41.29c0-16.76,12.61-28.06,28.96-28.06c11.88,0,18.79,6.43,22.61,13.26l-9.92,4.88
		c-2.28-4.39-7.16-7.89-12.69-7.89c-9.92,0-17.08,7.56-17.08,17.81s7.16,17.81,17.08,17.81c5.53,0,10.41-3.5,12.69-7.89l9.92,4.8
		c-3.82,6.75-10.74,13.34-22.61,13.34C265.89,69.35,253.28,57.96,253.28,41.29z"/>
	<path class="st0" d="M335.73,68.37V44.46c0-5.45-2.85-7.16-7.24-7.16c-4.07,0-7.24,2.28-8.95,4.56v26.52h-10.41V14.12h10.41v20.01
		c2.52-2.93,7.32-6.02,13.75-6.02c8.62,0,12.77,4.72,12.77,12.36v27.9H335.73z"/>
	<path class="st0" d="M377.87,68.37v-4.15c-2.68,3.25-7.32,5.12-12.45,5.12c-6.26,0-13.58-4.23-13.58-13.02
		c0-9.27,7.32-12.69,13.58-12.69c5.29,0,9.84,1.71,12.45,4.8v-4.96c0-3.99-3.42-6.59-8.62-6.59c-4.15,0-8.05,1.63-11.31,4.64
		l-4.07-7.24c4.8-4.31,10.98-6.18,17.16-6.18c9.03,0,17.25,3.58,17.25,14.89v25.38H377.87z M377.87,58.94v-4.88
		c-1.71-2.28-4.96-3.5-8.3-3.5c-4.07,0-7.4,2.2-7.4,5.94c0,3.74,3.33,5.86,7.4,5.86C372.91,62.35,376.16,61.22,377.87,58.94z"/>
	<path class="st0" d="M396.34,68.37V29.08h10.33v5.29c2.85-3.42,7.65-6.26,12.53-6.26v10.09c-0.73-0.16-1.63-0.24-2.85-0.24
		c-3.42,0-7.97,1.95-9.68,4.47v25.95H396.34z"/>
	<path class="st0" d="M423.23,68.37V14.12h10.33v54.26H423.23z"/>
	<path class="st0" d="M440.72,18.67c0-3.42,2.77-6.1,6.1-6.1c3.42,0,6.18,2.68,6.18,6.1s-2.77,6.18-6.18,6.18
		C443.48,24.85,440.72,22.09,440.72,18.67z M441.69,68.37V29.08h10.33v39.29H441.69z"/>
	<path class="st0" d="M457.53,48.69c0-11.39,8.46-20.58,20.34-20.58c11.8,0,19.69,8.79,19.69,21.56v2.44h-29.2
		c0.73,4.8,4.64,8.79,11.31,8.79c3.33,0,7.89-1.38,10.41-3.82l4.64,6.83c-3.9,3.58-10.09,5.45-16.19,5.45
		C466.56,69.35,457.53,61.3,457.53,48.69z M477.87,36.57c-6.43,0-9.19,4.47-9.6,8.38h19.36C487.3,41.2,484.7,36.57,477.87,36.57z"/>
	<path class="st0" d="M504.34,36.73l-4.47-3.66c2.6-1.38,5.61-4.8,6.26-7.73c-0.24,0.16-0.9,0.24-1.55,0.24
		c-3.09,0-5.53-2.36-5.53-5.86c0-3.5,2.93-6.43,6.43-6.43c3.82,0,7.24,3.01,7.24,8.3C512.72,27.7,509.38,33.15,504.34,36.73z"/>
	<path class="st0" d="M513.28,63.25l4.47-7.48c2.93,2.77,8.7,5.45,13.58,5.45c4.47,0,6.59-1.71,6.59-4.15
		c0-6.43-23.26-1.14-23.26-16.59c0-6.59,5.69-12.36,16.11-12.36c6.59,0,11.88,2.28,15.78,5.37l-4.15,7.32
		c-2.36-2.44-6.83-4.56-11.63-4.56c-3.74,0-6.18,1.63-6.18,3.82c0,5.78,23.35,0.9,23.35,16.76c0,7.24-6.18,12.53-17.08,12.53
		C524.02,69.35,517.43,67.07,513.28,63.25z"/>
	<path class="st0" d="M573.24,41.29c0-16.76,12.61-28.06,28.96-28.06c11.88,0,18.79,6.43,22.61,13.26l-9.92,4.88
		c-2.28-4.39-7.16-7.89-12.69-7.89c-9.92,0-17.08,7.56-17.08,17.81s7.16,17.81,17.08,17.81c5.53,0,10.41-3.5,12.69-7.89l9.92,4.8
		c-3.82,6.75-10.74,13.34-22.61,13.34C585.85,69.35,573.24,57.96,573.24,41.29z"/>
	<path class="st0" d="M654.02,68.37v-4.15c-2.68,3.25-7.32,5.12-12.45,5.12c-6.26,0-13.58-4.23-13.58-13.02
		c0-9.27,7.32-12.69,13.58-12.69c5.29,0,9.84,1.71,12.45,4.8v-4.96c0-3.99-3.42-6.59-8.62-6.59c-4.15,0-8.05,1.63-11.31,4.64
		l-4.07-7.24c4.8-4.31,10.98-6.18,17.16-6.18c9.03,0,17.25,3.58,17.25,14.89v25.38H654.02z M654.02,58.94v-4.88
		c-1.71-2.28-4.96-3.5-8.3-3.5c-4.07,0-7.4,2.2-7.4,5.94c0,3.74,3.33,5.86,7.4,5.86C649.06,62.35,652.31,61.22,654.02,58.94z"/>
	<path class="st0" d="M674.66,68.37V38.11h-6.51v-9.03h6.51v-1.63c0-8.87,5.29-14.15,13.18-14.15c3.82,0,7.89,1.06,10.25,3.74
		l-3.9,6.26c-1.06-0.98-2.44-1.55-4.31-1.55c-2.93,0-4.88,1.87-4.88,5.69v1.63h7.97v9.03h-7.97v30.26H674.66z"/>
	<path class="st0" d="M694.49,48.69c0-11.39,8.46-20.58,20.34-20.58c11.79,0,19.69,8.79,19.69,21.56v2.44h-29.2
		c0.73,4.8,4.64,8.79,11.31,8.79c3.33,0,7.89-1.38,10.41-3.82l4.64,6.83c-3.9,3.58-10.09,5.45-16.19,5.45
		C703.52,69.35,694.49,61.3,694.49,48.69z M714.82,36.57c-6.43,0-9.19,4.47-9.6,8.38h19.36C724.26,41.2,721.66,36.57,714.82,36.57z"
		/>
</g>
<path class="st0" d="M211.87,32.24c-0.74-1.35-1.96-2.33-3.44-2.77l-0.08-0.02c-2.37-0.68-4.92,0.22-6.29,2.15
	c-5.36,6.63-10.11,9.63-14.52,9.17c-3.61-0.37-7.99-3.07-13.41-8.26l-0.22-0.2c-0.8-0.77-1.86-1.82-3.01-2.97l-1.51-1.5
	c-3.31-3.31-7.42-7.42-11.69-11.01c-12.3-10.41-26.03-13.46-37.66-8.39c-4.65,1.99-8.64,5.13-11.64,9.15
	c-3-4.02-6.99-7.16-11.64-9.15c-11.63-5-25.36-1.95-37.66,8.39c-4.25,3.59-8.38,7.72-11.69,11.03c-1.76,1.76-3.58,3.59-4.75,4.69
	c-5.54,5.31-9.67,7.85-13.39,8.24c-4.44,0.46-9.11-2.52-14.67-9.38c-0.96-1.22-2.33-1.99-3.87-2.18c-1.54-0.18-3.06,0.24-4.28,1.2
	c-1.89,1.48-2.66,3.93-1.98,6.21c0.89,3.11,2.02,6.19,3.38,9.11c5.94,13.22,17.32,23.18,31.22,27.33
	c12.76,3.71,26.23,3.66,38.95-0.12c3.59-1.03,7.13-2.34,10.51-3.92c8.8-4.09,15.47-9.42,19.87-15.86
	c4.42,6.46,11.09,11.79,19.88,15.86c3.4,1.57,6.95,2.89,10.54,3.91c6.44,1.92,13.07,2.88,19.71,2.88c6.47,0,12.93-0.91,19.23-2.73
	c13.89-4.14,25.27-14.1,31.21-27.31c1.36-2.94,2.5-6.01,3.38-9.12C212.79,35.17,212.62,33.6,211.87,32.24z M190.49,52.27
	c-4.48,4.5-9.98,7.8-16.14,9.65c-10.58,3.03-21.75,2.96-32.31-0.21c-3.01-0.86-5.99-1.96-8.83-3.28
	c-11.71-5.45-18.62-13.73-18.95-22.73c-0.14-3.56,0.79-7.05,2.67-10.08c1.82-2.95,4.47-5.23,7.65-6.61
	c2.16-0.93,4.48-1.38,6.89-1.38c5.92,0,12.44,2.75,18.69,8.02c3.69,3.11,7.23,6.62,10.64,10.02l0.35,0.35
	c1.43,1.43,2.84,2.82,4.62,4.54l0.28,0.3c5.53,5.25,12.28,10.72,20.45,11.44C187.84,52.42,189.17,52.41,190.49,52.27z M102.62,35.77
	L102.62,35.77c-0.33,9-7.23,17.29-18.93,22.73c-2.84,1.32-5.82,2.42-8.85,3.29c-10.55,3.16-21.72,3.23-32.29,0.2
	c-6.16-1.84-11.68-5.15-16.17-9.65c1.32,0.14,2.65,0.14,3.99,0.02c8.27-0.73,15.27-6.5,20.41-11.42c1.56-1.44,2.73-2.62,3.85-3.76
	c0.36-0.37,0.72-0.73,1.08-1.09c3.14-3.14,7.04-7.04,11-10.37c8.79-7.42,18.11-9.84,25.57-6.64c3.18,1.37,5.83,3.66,7.66,6.61
	C101.83,28.72,102.76,32.2,102.62,35.77z"/>
</svg>
